<svg xmlns="http://www.w3.org/2000/svg" width="82" height="76" viewBox="0 0 82 76">
  <g id="Group_1" data-name="Group 1" transform="translate(-631 -77)" opacity="0.05">
    <circle id="Ellipse_1" data-name="Ellipse 1" cx="3" cy="3" r="3" transform="translate(631 91)" fill="#635d5d"/>
    <circle id="Ellipse_2" data-name="Ellipse 2" cx="3" cy="3" r="3" transform="translate(650 91)" fill="#635d5d"/>
    <circle id="Ellipse_3" data-name="Ellipse 3" cx="3" cy="3" r="3" transform="translate(669 91)" fill="#635d5d"/>
    <circle id="Ellipse_4" data-name="Ellipse 4" cx="3" cy="3" r="3" transform="translate(688 91)" fill="#635d5d"/>
    <circle id="Ellipse_5" data-name="Ellipse 5" cx="3" cy="3" r="3" transform="translate(631 91)" fill="#635d5d"/>
    <circle id="Ellipse_6" data-name="Ellipse 6" cx="3" cy="3" r="3" transform="translate(650 91)" fill="#635d5d"/>
    <circle id="Ellipse_7" data-name="Ellipse 7" cx="3" cy="3" r="3" transform="translate(669 91)" fill="#635d5d"/>
    <circle id="Ellipse_8" data-name="Ellipse 8" cx="3" cy="3" r="3" transform="translate(688 91)" fill="#635d5d"/>
    <circle id="Ellipse_9" data-name="Ellipse 9" cx="3" cy="3" r="3" transform="translate(631 105)" fill="#635d5d"/>
    <circle id="Ellipse_10" data-name="Ellipse 10" cx="3" cy="3" r="3" transform="translate(650 105)" fill="#635d5d"/>
    <circle id="Ellipse_11" data-name="Ellipse 11" cx="3" cy="3" r="3" transform="translate(669 105)" fill="#635d5d"/>
    <circle id="Ellipse_12" data-name="Ellipse 12" cx="3" cy="3" r="3" transform="translate(688 105)" fill="#635d5d"/>
    <circle id="Ellipse_13" data-name="Ellipse 13" cx="3" cy="3" r="3" transform="translate(631 105)" fill="#635d5d"/>
    <circle id="Ellipse_14" data-name="Ellipse 14" cx="3" cy="3" r="3" transform="translate(650 105)" fill="#635d5d"/>
    <circle id="Ellipse_15" data-name="Ellipse 15" cx="3" cy="3" r="3" transform="translate(669 105)" fill="#635d5d"/>
    <circle id="Ellipse_16" data-name="Ellipse 16" cx="3" cy="3" r="3" transform="translate(688 105)" fill="#635d5d"/>
    <circle id="Ellipse_17" data-name="Ellipse 17" cx="3" cy="3" r="3" transform="translate(631 119)" fill="#635d5d"/>
    <circle id="Ellipse_18" data-name="Ellipse 18" cx="3" cy="3" r="3" transform="translate(650 119)" fill="#635d5d"/>
    <circle id="Ellipse_19" data-name="Ellipse 19" cx="3" cy="3" r="3" transform="translate(669 119)" fill="#635d5d"/>
    <circle id="Ellipse_20" data-name="Ellipse 20" cx="3" cy="3" r="3" transform="translate(688 119)" fill="#635d5d"/>
    <circle id="Ellipse_21" data-name="Ellipse 21" cx="3" cy="3" r="3" transform="translate(631 119)" fill="#635d5d"/>
    <circle id="Ellipse_22" data-name="Ellipse 22" cx="3" cy="3" r="3" transform="translate(650 119)" fill="#635d5d"/>
    <circle id="Ellipse_23" data-name="Ellipse 23" cx="3" cy="3" r="3" transform="translate(669 119)" fill="#635d5d"/>
    <circle id="Ellipse_24" data-name="Ellipse 24" cx="3" cy="3" r="3" transform="translate(688 119)" fill="#635d5d"/>
    <circle id="Ellipse_25" data-name="Ellipse 25" cx="3" cy="3" r="3" transform="translate(631 133)" fill="#635d5d"/>
    <circle id="Ellipse_26" data-name="Ellipse 26" cx="3" cy="3" r="3" transform="translate(650 133)" fill="#635d5d"/>
    <circle id="Ellipse_27" data-name="Ellipse 27" cx="3" cy="3" r="3" transform="translate(669 133)" fill="#635d5d"/>
    <circle id="Ellipse_28" data-name="Ellipse 28" cx="3" cy="3" r="3" transform="translate(688 133)" fill="#635d5d"/>
    <circle id="Ellipse_29" data-name="Ellipse 29" cx="3" cy="3" r="3" transform="translate(631 133)" fill="#635d5d"/>
    <circle id="Ellipse_30" data-name="Ellipse 30" cx="3" cy="3" r="3" transform="translate(650 133)" fill="#635d5d"/>
    <circle id="Ellipse_31" data-name="Ellipse 31" cx="3" cy="3" r="3" transform="translate(669 133)" fill="#635d5d"/>
    <circle id="Ellipse_32" data-name="Ellipse 32" cx="3" cy="3" r="3" transform="translate(688 133)" fill="#635d5d"/>
    <circle id="Ellipse_33" data-name="Ellipse 33" cx="3" cy="3" r="3" transform="translate(631 147)" fill="#635d5d"/>
    <circle id="Ellipse_34" data-name="Ellipse 34" cx="3" cy="3" r="3" transform="translate(650 147)" fill="#635d5d"/>
    <circle id="Ellipse_35" data-name="Ellipse 35" cx="3" cy="3" r="3" transform="translate(669 147)" fill="#635d5d"/>
    <circle id="Ellipse_36" data-name="Ellipse 36" cx="3" cy="3" r="3" transform="translate(688 147)" fill="#635d5d"/>
    <circle id="Ellipse_37" data-name="Ellipse 37" cx="3" cy="3" r="3" transform="translate(631 147)" fill="#635d5d"/>
    <circle id="Ellipse_38" data-name="Ellipse 38" cx="3" cy="3" r="3" transform="translate(650 147)" fill="#635d5d"/>
    <circle id="Ellipse_39" data-name="Ellipse 39" cx="3" cy="3" r="3" transform="translate(669 147)" fill="#635d5d"/>
    <circle id="Ellipse_40" data-name="Ellipse 40" cx="3" cy="3" r="3" transform="translate(688 147)" fill="#635d5d"/>
    <circle id="Ellipse_257" data-name="Ellipse 257" cx="3" cy="3" r="3" transform="translate(707 91)" fill="#635d5d"/>
    <circle id="Ellipse_261" data-name="Ellipse 261" cx="3" cy="3" r="3" transform="translate(707 91)" fill="#635d5d"/>
    <circle id="Ellipse_265" data-name="Ellipse 265" cx="3" cy="3" r="3" transform="translate(707 105)" fill="#635d5d"/>
    <circle id="Ellipse_269" data-name="Ellipse 269" cx="3" cy="3" r="3" transform="translate(707 105)" fill="#635d5d"/>
    <circle id="Ellipse_273" data-name="Ellipse 273" cx="3" cy="3" r="3" transform="translate(707 119)" fill="#635d5d"/>
    <circle id="Ellipse_277" data-name="Ellipse 277" cx="3" cy="3" r="3" transform="translate(707 119)" fill="#635d5d"/>
    <circle id="Ellipse_281" data-name="Ellipse 281" cx="3" cy="3" r="3" transform="translate(707 133)" fill="#635d5d"/>
    <circle id="Ellipse_285" data-name="Ellipse 285" cx="3" cy="3" r="3" transform="translate(707 133)" fill="#635d5d"/>
    <circle id="Ellipse_289" data-name="Ellipse 289" cx="3" cy="3" r="3" transform="translate(707 147)" fill="#635d5d"/>
    <circle id="Ellipse_293" data-name="Ellipse 293" cx="3" cy="3" r="3" transform="translate(707 147)" fill="#635d5d"/>
    <circle id="Ellipse_1025" data-name="Ellipse 1025" cx="3" cy="3" r="3" transform="translate(631 77)" fill="#635d5d"/>
    <circle id="Ellipse_1026" data-name="Ellipse 1026" cx="3" cy="3" r="3" transform="translate(650 77)" fill="#635d5d"/>
    <circle id="Ellipse_1027" data-name="Ellipse 1027" cx="3" cy="3" r="3" transform="translate(669 77)" fill="#635d5d"/>
    <circle id="Ellipse_1028" data-name="Ellipse 1028" cx="3" cy="3" r="3" transform="translate(688 77)" fill="#635d5d"/>
    <circle id="Ellipse_1029" data-name="Ellipse 1029" cx="3" cy="3" r="3" transform="translate(631 77)" fill="#635d5d"/>
    <circle id="Ellipse_1030" data-name="Ellipse 1030" cx="3" cy="3" r="3" transform="translate(650 77)" fill="#635d5d"/>
    <circle id="Ellipse_1031" data-name="Ellipse 1031" cx="3" cy="3" r="3" transform="translate(669 77)" fill="#635d5d"/>
    <circle id="Ellipse_1032" data-name="Ellipse 1032" cx="3" cy="3" r="3" transform="translate(688 77)" fill="#635d5d"/>
    <circle id="Ellipse_1033" data-name="Ellipse 1033" cx="3" cy="3" r="3" transform="translate(707 77)" fill="#635d5d"/>
    <circle id="Ellipse_1034" data-name="Ellipse 1034" cx="3" cy="3" r="3" transform="translate(707 77)" fill="#635d5d"/>
  </g>
</svg>
